<svg width="1080" height="203" viewBox="0 0 1080 203" fill="none" xmlns="http://www.w3.org/2000/svg">
<rect width="1080" height="203" fill="#F4C270"/>
<path d="M971 87.5C877 85.5 844.333 27.6667 840 0H1079.5V140.987C1079.93 144.229 1079.89 147.276 1079.5 150V140.987C1076.61 119.436 1052.71 89.2385 971 87.5Z" fill="#33AD6F"/>
<path fill-rule="evenodd" clip-rule="evenodd" d="M1080 0H881.983C898.808 26.8183 934.604 56.0873 1001 57.5C1038.11 58.2895 1063.29 64.948 1080 74.0006V0Z" fill="#3155A4"/>
<path fill-rule="evenodd" clip-rule="evenodd" d="M1080 0H940.059C960.469 15.0549 989.86 26.6247 1031 27.5C1050.44 27.9136 1066.61 29.9382 1080 33.0741V0Z" fill="#F4C270"/>
<path fill-rule="evenodd" clip-rule="evenodd" d="M0 0V163H42.5C70.8333 161.333 112.5 140 123.5 60.5C126.261 40.5475 133.507 18.451 147.913 0H0Z" fill="#3155A4"/>
<path fill-rule="evenodd" clip-rule="evenodd" d="M0 133H8.5C36.8333 131.333 78.5 110 89.5 30.5C90.8664 20.6246 93.3318 10.2239 97.2202 0H0V133Z" fill="#33AD6F"/>
<path fill-rule="evenodd" clip-rule="evenodd" d="M0 98.1127V0H59.5701C59.5464 0.166814 59.523 0.333482 59.5 0.5C51.0721 61.4106 24.6424 88.1763 0 98.1127Z" fill="#F4C270"/>
<path d="M214.923 74.7L225.523 85.2C231.023 80.2 238.523 77.2 246.623 77.2C264.123 77.2 278.323 91.3 278.323 108.8C278.323 126.3 264.123 140.5 246.623 140.5C241.023 140.5 236.023 139.1 231.623 136.6V154.7H214.923V98L203.323 86.3L214.923 74.7ZM261.623 108.8C261.623 100.8 254.723 93.8 246.623 93.8C238.523 93.8 231.623 100.8 231.623 108.8C231.623 116.9 238.523 123.8 246.623 123.8C254.723 123.8 261.623 116.9 261.623 108.8ZM352.118 119.7H305.718C307.118 126.6 313.218 132.2 320.418 132.2C321.618 132.2 321.818 132.2 322.918 132.2V148.8C321.818 148.8 321.618 148.8 320.418 148.8C302.918 148.8 288.818 134.7 288.818 117.2V108.8C288.818 91.3 302.918 77.2 320.418 77.2C337.918 77.2 352.118 91.3 352.118 108.8C352.118 109.9 352.118 119.7 352.118 119.7ZM306.618 103H334.118C331.818 97.7 326.618 93.8 320.418 93.8C314.318 93.8 309.118 97.7 306.618 103ZM364.923 138V98L353.323 86.3L364.923 74.7L375.523 85.2C381.023 80.2 388.523 77.2 396.623 77.2H398.323V93.8H396.623C388.523 93.8 381.623 100.8 381.623 108.8V138H364.923ZM449.703 79.7H466.403V156.9L424.703 106.6V138H408.003V60.8L449.703 111.1V79.7ZM531.857 138H490.257L484.957 146.6L470.457 137.7L511.057 71.9L551.657 137.7L537.157 146.6L531.857 138ZM500.457 121.3H521.657L511.057 104.1L500.457 121.3ZM564.357 141.3L549.357 134.7L577.757 69.9L598.557 117.4L619.357 69.9L647.757 134.7L632.757 141.3L619.357 110.8L598.557 158.3L577.757 110.8L564.357 141.3ZM676.057 58.8V81.1C680.457 78.6 685.457 77.2 691.057 77.2C708.557 77.2 722.757 91.3 722.757 108.8C722.757 126.3 708.557 140.5 691.057 140.5C682.957 140.5 675.457 137.4 669.957 132.4L659.357 143L647.757 131.3L659.357 119.7V58.8H676.057ZM706.057 108.8C706.057 100.8 699.157 93.8 691.057 93.8C682.957 93.8 676.057 100.8 676.057 108.8C676.057 116.9 682.957 123.8 691.057 123.8C699.157 123.8 706.057 116.9 706.057 108.8ZM733.251 108.8C733.251 91.3 747.351 77.2 764.851 77.2C782.351 77.2 796.551 91.3 796.551 108.8C796.551 126.3 782.351 140.5 764.851 140.5C747.351 140.5 733.251 126.3 733.251 108.8ZM749.851 108.8C749.851 116.9 756.851 123.8 764.851 123.8C772.951 123.8 779.851 116.9 779.851 108.8C779.851 100.8 772.951 93.8 764.851 93.8C756.851 93.8 749.851 100.8 749.851 108.8ZM816.077 73.8L838.777 96.9L861.877 73.8L873.577 85.5L850.477 108.3L873.577 131.3L861.877 143L839.077 120.2L816.077 143L804.377 131.3L827.177 108.6L804.377 85.5L816.077 73.8Z" fill="#EB4E1E"/>
</svg>
