<svg width="1080" height="1920" viewBox="0 0 1080 1920" fill="none" xmlns="http://www.w3.org/2000/svg">
<g clip-path="url(#clip0_8_49)">
<rect width="1080" height="1920" fill="#F4C270"/>
<path d="M387.281 861.312C387.281 863.125 386.875 864.792 386.062 866.312C385.25 867.812 383.906 869.062 382.031 870.062V870.188C383.073 870.542 384.021 871 384.875 871.562C385.75 872.104 386.49 872.76 387.094 873.531C387.719 874.281 388.198 875.135 388.531 876.094C388.885 877.052 389.062 878.125 389.062 879.312C389.062 880.333 388.896 881.427 388.562 882.594C388.25 883.76 387.688 884.896 386.875 886C386.062 887.083 384.979 888.083 383.625 889C382.271 889.917 380.562 890.646 378.5 891.188C377.979 891.312 377.406 891.427 376.781 891.531C376.177 891.635 375.5 891.729 374.75 891.812C374 891.875 373.167 891.927 372.25 891.969C371.333 891.99 370.302 892 369.156 892H357V850.188H371.531C374.635 850.188 377.135 850.5 379.031 851.125C380.448 851.583 381.677 852.188 382.719 852.938C383.76 853.667 384.615 854.49 385.281 855.406C385.969 856.302 386.469 857.26 386.781 858.281C387.115 859.281 387.281 860.292 387.281 861.312ZM364.656 873.812V885.594H369.656C370.99 885.594 372.135 885.562 373.094 885.5C374.052 885.417 374.875 885.292 375.562 885.125C376.625 884.896 377.51 884.594 378.219 884.219C378.927 883.823 379.5 883.385 379.938 882.906C380.375 882.406 380.688 881.865 380.875 881.281C381.062 880.677 381.156 880.042 381.156 879.375C381.156 878.208 380.833 877.188 380.188 876.312C379.542 875.438 378.531 874.781 377.156 874.344C376.552 874.156 375.844 874.021 375.031 873.938C374.219 873.854 373.177 873.812 371.906 873.812H364.656ZM371.562 867.406C373.646 867.406 375.198 867.198 376.219 866.781C377.365 866.302 378.177 865.646 378.656 864.812C379.156 863.958 379.406 863 379.406 861.938C379.406 860.833 379.125 859.854 378.562 859C378 858.125 377.042 857.479 375.688 857.062C375.125 856.896 374.469 856.781 373.719 856.719C372.969 856.635 372.042 856.594 370.938 856.594H364.656V867.406H371.562ZM411.531 886.812C412.969 886.812 414.469 886.667 416.031 886.375C417.594 886.083 419.177 885.667 420.781 885.125V891.031C419.823 891.448 418.354 891.844 416.375 892.219C414.396 892.594 412.344 892.781 410.219 892.781C408.073 892.781 406.031 892.51 404.094 891.969C402.177 891.406 400.5 890.51 399.062 889.281C397.625 888.052 396.479 886.458 395.625 884.5C394.792 882.542 394.375 880.167 394.375 877.375C394.375 874.625 394.771 872.219 395.562 870.156C396.354 868.094 397.417 866.385 398.75 865.031C400.083 863.677 401.604 862.667 403.312 862C405.042 861.312 406.823 860.969 408.656 860.969C410.573 860.969 412.333 861.26 413.938 861.844C415.562 862.427 416.958 863.344 418.125 864.594C419.312 865.844 420.229 867.458 420.875 869.438C421.542 871.396 421.875 873.719 421.875 876.406C421.854 877.448 421.823 878.333 421.781 879.062H401.938C402.042 880.458 402.354 881.656 402.875 882.656C403.396 883.635 404.073 884.438 404.906 885.062C405.76 885.667 406.75 886.115 407.875 886.406C409 886.677 410.219 886.812 411.531 886.812ZM408.562 866.75C407.625 866.75 406.792 866.927 406.062 867.281C405.333 867.615 404.698 868.083 404.156 868.688C403.635 869.271 403.219 869.958 402.906 870.75C402.594 871.542 402.385 872.385 402.281 873.281H414.188C414.188 872.385 414.062 871.542 413.812 870.75C413.583 869.958 413.229 869.271 412.75 868.688C412.292 868.083 411.708 867.615 411 867.281C410.312 866.927 409.5 866.75 408.562 866.75ZM467.75 873.562C467.75 872.917 467.729 872.312 467.688 871.75C467.646 871.188 467.573 870.698 467.469 870.281C467.24 869.365 466.792 868.625 466.125 868.062C465.458 867.5 464.521 867.208 463.312 867.188C462.667 867.188 462 867.281 461.312 867.469C460.625 867.656 459.938 867.927 459.25 868.281C458.583 868.615 457.938 869.031 457.312 869.531C456.708 870.01 456.156 870.552 455.656 871.156V892H448.25V873.562C448.25 872.917 448.229 872.312 448.188 871.75C448.146 871.188 448.073 870.698 447.969 870.281C447.74 869.365 447.292 868.625 446.625 868.062C445.979 867.5 445.042 867.208 443.812 867.188C443.167 867.188 442.5 867.281 441.812 867.469C441.125 867.656 440.438 867.927 439.75 868.281C439.083 868.615 438.438 869.031 437.812 869.531C437.208 870.01 436.656 870.552 436.156 871.156V892H428.75V861.719H434.875L435.562 865.938H435.688C436.125 865.312 436.677 864.698 437.344 864.094C438.01 863.49 438.76 862.958 439.594 862.5C440.448 862.042 441.375 861.677 442.375 861.406C443.396 861.115 444.469 860.969 445.594 860.969C447.594 860.969 449.385 861.417 450.969 862.312C452.573 863.188 453.792 864.562 454.625 866.438H454.75C455.333 865.625 455.979 864.885 456.688 864.219C457.417 863.552 458.219 862.979 459.094 862.5C459.969 862.021 460.906 861.646 461.906 861.375C462.927 861.104 464.01 860.969 465.156 860.969C467.323 860.99 469.135 861.448 470.594 862.344C472.073 863.219 473.208 864.427 474 865.969C474.208 866.365 474.385 866.802 474.531 867.281C474.677 867.74 474.792 868.26 474.875 868.844C474.979 869.427 475.052 870.073 475.094 870.781C475.135 871.49 475.156 872.302 475.156 873.219V892H467.75V873.562ZM523.562 861.719L511.844 892H504.5L492.75 861.719H500.562L504.781 873.281C505.99 876.531 507.094 879.781 508.094 883.031H508.219C509.094 880.219 510.177 877.031 511.469 873.469L515.688 861.719H523.562ZM528.125 861.719H535.531V892H528.125V861.719ZM527.938 846.75H535.719V854.781H527.938V846.75ZM550.688 865.938H550.812C551.25 865.312 551.802 864.698 552.469 864.094C553.135 863.49 553.896 862.958 554.75 862.5C555.604 862.042 556.542 861.677 557.562 861.406C558.604 861.115 559.708 860.969 560.875 860.969C561.979 860.969 563.042 861.094 564.062 861.344C565.104 861.594 566.052 861.99 566.906 862.531C567.76 863.052 568.51 863.74 569.156 864.594C569.823 865.427 570.344 866.427 570.719 867.594C570.927 868.24 571.062 868.948 571.125 869.719C571.208 870.469 571.25 871.344 571.25 872.344V892H563.844V873.5C563.844 872.688 563.812 871.99 563.75 871.406C563.688 870.823 563.573 870.312 563.406 869.875C563.031 868.917 562.458 868.229 561.688 867.812C560.938 867.396 560.021 867.188 558.938 867.188C557.5 867.188 556.115 867.531 554.781 868.219C553.469 868.885 552.302 869.865 551.281 871.156V892H543.875V861.719H550L550.688 865.938ZM592.406 886.875C593.135 886.875 593.823 886.781 594.469 886.594C595.135 886.406 595.76 886.156 596.344 885.844C596.927 885.531 597.438 885.188 597.875 884.812C598.333 884.438 598.719 884.073 599.031 883.719V869.344C598.156 868.635 597.177 868.052 596.094 867.594C595.01 867.115 593.865 866.875 592.656 866.875C591.885 866.875 591.073 867.031 590.219 867.344C589.385 867.656 588.615 868.188 587.906 868.938C587.219 869.688 586.635 870.729 586.156 872.062C585.698 873.396 585.469 875.094 585.469 877.156C585.469 880.198 586.052 882.573 587.219 884.281C588.406 885.99 590.135 886.854 592.406 886.875ZM577.812 877.469C577.812 874.823 578.177 872.469 578.906 870.406C579.635 868.323 580.625 866.583 581.875 865.188C583.146 863.771 584.594 862.719 586.219 862.031C587.844 861.323 589.531 860.969 591.281 860.969C592.094 860.969 592.865 861.042 593.594 861.188C594.323 861.333 595.01 861.531 595.656 861.781C596.302 862.031 596.906 862.312 597.469 862.625C598.031 862.938 598.552 863.26 599.031 863.594H599.094C599.073 863.177 599.052 862.594 599.031 861.844C599.031 861.073 599.031 860.24 599.031 859.344V846.75H606.438V883C606.438 885 606.458 886.719 606.5 888.156C606.542 889.594 606.583 890.875 606.625 892H599.938L599.625 888.781H599.5C599.062 889.302 598.531 889.812 597.906 890.312C597.302 890.812 596.625 891.25 595.875 891.625C595.146 891.979 594.333 892.26 593.438 892.469C592.562 892.677 591.604 892.781 590.562 892.781C588.917 892.781 587.333 892.49 585.812 891.906C584.312 891.323 582.958 890.427 581.75 889.219C580.562 887.99 579.604 886.396 578.875 884.438C578.167 882.458 577.812 880.135 577.812 877.469ZM636.281 876.875C636.281 875.271 636.094 873.854 635.719 872.625C635.344 871.396 634.823 870.365 634.156 869.531C633.49 868.698 632.688 868.073 631.75 867.656C630.812 867.24 629.792 867.031 628.688 867.031C627.604 867.031 626.594 867.24 625.656 867.656C624.74 868.073 623.948 868.698 623.281 869.531C622.615 870.365 622.094 871.396 621.719 872.625C621.344 873.854 621.156 875.271 621.156 876.875C621.156 878.479 621.344 879.896 621.719 881.125C622.094 882.354 622.615 883.385 623.281 884.219C623.969 885.031 624.771 885.656 625.688 886.094C626.625 886.51 627.646 886.719 628.75 886.719C629.854 886.719 630.865 886.51 631.781 886.094C632.698 885.656 633.49 885.031 634.156 884.219C634.823 883.385 635.344 882.354 635.719 881.125C636.094 879.896 636.281 878.479 636.281 876.875ZM643.938 876.875C643.938 879.25 643.583 881.417 642.875 883.375C642.167 885.333 641.146 887.01 639.812 888.406C638.5 889.802 636.906 890.885 635.031 891.656C633.156 892.406 631.062 892.781 628.75 892.781C626.375 892.781 624.24 892.406 622.344 891.656C620.469 890.885 618.875 889.802 617.562 888.406C616.25 887.01 615.24 885.333 614.531 883.375C613.844 881.417 613.5 879.25 613.5 876.875C613.5 874.5 613.854 872.333 614.562 870.375C615.271 868.417 616.281 866.74 617.594 865.344C618.927 863.948 620.531 862.875 622.406 862.125C624.281 861.354 626.375 860.969 628.688 860.969C631.062 860.969 633.188 861.354 635.062 862.125C636.958 862.875 638.562 863.948 639.875 865.344C641.188 866.74 642.188 868.417 642.875 870.375C643.583 872.333 643.938 874.5 643.938 876.875ZM681.5 888.781H681.375C680.958 889.219 680.458 889.667 679.875 890.125C679.292 890.583 678.625 891.021 677.875 891.438C677.125 891.833 676.292 892.156 675.375 892.406C674.458 892.656 673.469 892.781 672.406 892.781C670.969 892.781 669.625 892.552 668.375 892.094C667.125 891.656 666.052 891.021 665.156 890.188C664.26 889.333 663.552 888.312 663.031 887.125C662.531 885.917 662.281 884.573 662.281 883.094C662.281 881.469 662.573 880.01 663.156 878.719C663.76 877.427 664.594 876.333 665.656 875.438C666.719 874.542 667.99 873.865 669.469 873.406C670.948 872.927 672.583 872.688 674.375 872.688C675.688 872.688 676.896 872.771 678 872.938C679.104 873.104 680.073 873.302 680.906 873.531V872.312C680.906 871.604 680.781 870.927 680.531 870.281C680.302 869.615 679.917 869.031 679.375 868.531C678.854 868.01 678.167 867.604 677.312 867.312C676.458 867 675.417 866.844 674.188 866.844C672.688 866.844 671.188 867.01 669.688 867.344C668.188 867.677 666.562 868.177 664.812 868.844V863.062C666.333 862.396 667.948 861.885 669.656 861.531C671.365 861.177 673.156 860.99 675.031 860.969C677.24 860.969 679.167 861.24 680.812 861.781C682.479 862.323 683.865 863.073 684.969 864.031C686.094 864.969 686.927 866.083 687.469 867.375C688.031 868.667 688.312 870.073 688.312 871.594V883C688.312 885 688.333 886.719 688.375 888.156C688.417 889.594 688.458 890.875 688.5 892H681.812L681.5 888.781ZM680.906 879.094C680.198 878.927 679.385 878.781 678.469 878.656C677.552 878.51 676.625 878.438 675.688 878.438C673.875 878.438 672.438 878.802 671.375 879.531C670.333 880.24 669.812 881.333 669.812 882.812C669.812 883.5 669.927 884.104 670.156 884.625C670.406 885.125 670.729 885.542 671.125 885.875C671.542 886.208 672.021 886.458 672.562 886.625C673.104 886.792 673.677 886.875 674.281 886.875C675.031 886.875 675.74 886.781 676.406 886.594C677.073 886.385 677.688 886.135 678.25 885.844C678.812 885.531 679.312 885.188 679.75 884.812C680.208 884.438 680.594 884.073 680.906 883.719V879.094ZM717.844 876.875C717.844 875.271 717.656 873.854 717.281 872.625C716.906 871.396 716.385 870.365 715.719 869.531C715.052 868.698 714.25 868.073 713.312 867.656C712.375 867.24 711.354 867.031 710.25 867.031C709.167 867.031 708.156 867.24 707.219 867.656C706.302 868.073 705.51 868.698 704.844 869.531C704.177 870.365 703.656 871.396 703.281 872.625C702.906 873.854 702.719 875.271 702.719 876.875C702.719 878.479 702.906 879.896 703.281 881.125C703.656 882.354 704.177 883.385 704.844 884.219C705.531 885.031 706.333 885.656 707.25 886.094C708.188 886.51 709.208 886.719 710.312 886.719C711.417 886.719 712.427 886.51 713.344 886.094C714.26 885.656 715.052 885.031 715.719 884.219C716.385 883.385 716.906 882.354 717.281 881.125C717.656 879.896 717.844 878.479 717.844 876.875ZM725.5 876.875C725.5 879.25 725.146 881.417 724.438 883.375C723.729 885.333 722.708 887.01 721.375 888.406C720.062 889.802 718.469 890.885 716.594 891.656C714.719 892.406 712.625 892.781 710.312 892.781C707.938 892.781 705.802 892.406 703.906 891.656C702.031 890.885 700.438 889.802 699.125 888.406C697.812 887.01 696.802 885.333 696.094 883.375C695.406 881.417 695.062 879.25 695.062 876.875C695.062 874.5 695.417 872.333 696.125 870.375C696.833 868.417 697.844 866.74 699.156 865.344C700.49 863.948 702.094 862.875 703.969 862.125C705.844 861.354 707.938 860.969 710.25 860.969C712.625 860.969 714.75 861.354 716.625 862.125C718.521 862.875 720.125 863.948 721.438 865.344C722.75 866.74 723.75 868.417 724.438 870.375C725.146 872.333 725.5 874.5 725.5 876.875Z" fill="#2B303A"/>
<path d="M162.331 966.572L174.627 978.752C181.007 972.952 189.707 969.472 199.103 969.472C219.403 969.472 235.875 985.828 235.875 1006.13C235.875 1026.43 219.403 1042.9 199.103 1042.9C192.607 1042.9 186.807 1041.28 181.703 1038.38V1059.37H162.331V993.6L148.875 980.028L162.331 966.572ZM216.503 1006.13C216.503 996.848 208.499 988.728 199.103 988.728C189.707 988.728 181.703 996.848 181.703 1006.13C181.703 1015.52 189.707 1023.53 199.103 1023.53C208.499 1023.53 216.503 1015.52 216.503 1006.13ZM321.476 1018.77H267.652C269.276 1026.78 276.352 1033.27 284.704 1033.27C286.096 1033.27 286.328 1033.27 287.604 1033.27V1052.53C286.328 1052.53 286.096 1052.53 284.704 1052.53C264.404 1052.53 248.048 1036.17 248.048 1015.87V1006.13C248.048 985.828 264.404 969.472 284.704 969.472C305.004 969.472 321.476 985.828 321.476 1006.13C321.476 1007.4 321.476 1018.77 321.476 1018.77ZM268.696 999.4H300.596C297.928 993.252 291.896 988.728 284.704 988.728C277.628 988.728 271.596 993.252 268.696 999.4ZM336.331 1040V993.6L322.875 980.028L336.331 966.572L348.627 978.752C355.007 972.952 363.707 969.472 373.103 969.472H375.075V988.728H373.103C363.707 988.728 355.703 996.848 355.703 1006.13V1040H336.331ZM434.675 972.372H454.047V1061.92L405.675 1003.58V1040H386.303V950.448L434.675 1008.8V972.372ZM529.974 1040H481.718L475.57 1049.98L458.75 1039.65L505.846 963.324L552.942 1039.65L536.122 1049.98L529.974 1040ZM493.55 1020.63H518.142L505.846 1000.68L493.55 1020.63ZM567.674 1043.83L550.274 1036.17L583.218 961.004L607.346 1016.1L631.474 961.004L664.418 1036.17L647.018 1043.83L631.474 1008.45L607.346 1063.55L583.218 1008.45L567.674 1043.83ZM697.246 948.128V973.996C702.35 971.096 708.15 969.472 714.646 969.472C734.946 969.472 751.418 985.828 751.418 1006.13C751.418 1026.43 734.946 1042.9 714.646 1042.9C705.25 1042.9 696.55 1039.3 690.17 1033.5L677.874 1045.8L664.418 1032.23L677.874 1018.77V948.128H697.246ZM732.046 1006.13C732.046 996.848 724.042 988.728 714.646 988.728C705.25 988.728 697.246 996.848 697.246 1006.13C697.246 1015.52 705.25 1023.53 714.646 1023.53C724.042 1023.53 732.046 1015.52 732.046 1006.13ZM763.591 1006.13C763.591 985.828 779.947 969.472 800.247 969.472C820.547 969.472 837.019 985.828 837.019 1006.13C837.019 1026.43 820.547 1042.9 800.247 1042.9C779.947 1042.9 763.591 1026.43 763.591 1006.13ZM782.847 1006.13C782.847 1015.52 790.967 1023.53 800.247 1023.53C809.643 1023.53 817.647 1015.52 817.647 1006.13C817.647 996.848 809.643 988.728 800.247 988.728C790.967 988.728 782.847 996.848 782.847 1006.13ZM859.669 965.528L886.001 992.324L912.797 965.528L926.369 979.1L899.573 1005.55L926.369 1032.23L912.797 1045.8L886.349 1019.35L859.669 1045.8L846.097 1032.23L872.545 1005.9L846.097 979.1L859.669 965.528Z" fill="#EB4E1E"/>
<path d="M737 325C469.8 343 500 114.5 548.5 0H1081V562C1077.67 475.5 1004.2 307 737 325Z" fill="#3155A4"/>
<path fill-rule="evenodd" clip-rule="evenodd" d="M1080 0H607.482C585.345 115.499 611.341 254.174 821.747 240C945.021 231.696 1027.06 263.087 1080 307.809V0Z" fill="#33AD6F"/>
<path fill-rule="evenodd" clip-rule="evenodd" d="M1080 0H687.766C694.554 88.4161 748.001 165.761 907.748 155C977.706 150.287 1034.38 158.359 1080 174.396V0Z" fill="#F4C270"/>
<path d="M0.219084 212.775C152.193 190.7 402.843 254.954 189.651 688.577C74.6053 922.577 21.0814 1100.19 0.219084 1224.47V1428C-11.6057 1397.71 -17.5785 1330.5 0.219084 1224.47V212.775Z" fill="#EB4E1E"/>
<path fill-rule="evenodd" clip-rule="evenodd" d="M0 1012.3C27.3063 940.482 61.6891 860.961 104.651 773.577C280.978 414.936 140.008 308.966 0 295.531V1012.3Z" fill="#3155A4"/>
<path fill-rule="evenodd" clip-rule="evenodd" d="M-85 1097V1097.3C-84.9622 1097.2 -84.9244 1097.1 -84.8865 1097H-85ZM0 899.249C6.34191 885.886 12.8904 872.329 19.6514 858.577C159.128 574.887 100.072 449.294 0 402.54V899.249Z" fill="#F4C270"/>
<path d="M719 1541.5C815 1356.5 976.667 1341.17 1080 1419V1920H378C460 1906.67 581.705 1806.08 719 1541.5Z" fill="#33AD6F"/>
<path fill-rule="evenodd" clip-rule="evenodd" d="M804 1626.77C876.385 1487.28 986.104 1444.25 1080 1464.89V1920H603.119C663.367 1860.44 731.511 1766.46 804 1626.77Z" fill="#EB4E1E"/>
<path fill-rule="evenodd" clip-rule="evenodd" d="M888.881 1711.77C940.153 1612.97 1010.16 1562.56 1080 1548.89V1920H761.09C801.501 1866.08 844.372 1797.54 888.881 1711.77Z" fill="#F4C270"/>
</g>
<defs>
<clipPath id="clip0_8_49">
<rect width="1080" height="1920" fill="white"/>
</clipPath>
</defs>
</svg>
